<svg xmlns="http://www.w3.org/2000/svg" width="24" height="24" viewBox="0 0 24 24" fill="none">
  <path fill-rule="evenodd" clip-rule="evenodd" d="M23 12c0-6.075-4.925-11-11-11S1 5.925 1 12s4.925 11 11 11 11-4.925 11-11zM12 0c6.627 0 12 5.373 12 12s-5.373 12-12 12S0 18.627 0 12 5.373 0 12 0z" fill="#5181B8"/>
  <path d="M11.65 16.453h.837s.252-.027.381-.166c.12-.128.115-.368.115-.368s-.016-1.123.505-1.288c.514-.163 1.174 1.085 1.873 1.565.529.363.93.284.93.284l1.87-.027s.978-.06.514-.829c-.038-.063-.27-.569-1.39-1.608-1.172-1.088-1.015-.912.397-2.794.86-1.147 1.204-1.846 1.096-2.146-.102-.286-.735-.21-.735-.21l-2.105.013s-.156-.021-.272.048a.588.588 0 00-.185.226s-.334.887-.778 1.641c-.937 1.592-1.312 1.676-1.465 1.577-.357-.23-.268-.925-.268-1.42 0-1.542.234-2.185-.455-2.351-.23-.056-.398-.092-.983-.098-.75-.008-1.387.002-1.747.178-.239.118-.424.379-.311.394.139.019.454.085.621.312.216.294.208.953.208.953s.124 1.816-.29 2.041c-.283.155-.672-.16-1.508-1.605-.428-.74-.751-1.557-.751-1.557s-.063-.153-.174-.235c-.135-.099-.323-.13-.323-.13l-2 .013s-.301.008-.411.139c-.098.116-.008.356-.008.356s1.566 3.664 3.34 5.51c1.626 1.694 3.472 1.582 3.472 1.582z" fill="#5181B8"/>
</svg>
